<?xml version="1.0" encoding="UTF-8"?>
<svg version="1.1" xmlns="http://www.w3.org/2000/svg" width="600" height="600">
<path d="M0 0 C7.60358694 6.64583867 15.28281026 13.96314149 20.35546875 22.78515625 C20.35546875 23.44515625 20.35546875 24.10515625 20.35546875 24.78515625 C18.30078125 26.23046875 18.30078125 26.23046875 15.48046875 27.91015625 C9.72536872 31.47669711 4.5201439 35.41567712 -0.64453125 39.78515625 C-1.45664062 40.46191406 -2.26875 41.13867188 -3.10546875 41.8359375 C-26.11187173 61.68531042 -39.85854697 89.34628532 -42.50390625 119.67773438 C-44.91752083 155.84843064 -35.07293131 188.31611753 -11.19921875 215.77905273 C1.85817622 230.45434055 17.66031543 240.57291089 35.35546875 248.78515625 C34.86828311 255.93745614 32.03134298 262.10050938 29.29296875 268.66015625 C28.79200684 269.86889404 28.29104492 271.07763184 27.77490234 272.32299805 C26.31663369 275.81691261 24.8416672 279.30304095 23.35546875 282.78515625 C22.99501465 283.63062012 22.63456055 284.47608398 22.26318359 285.34716797 C12.20329963 308.59815805 -2.24158744 329.779635 -17.64453125 349.78515625 C-18.0617041 350.33381348 -18.47887695 350.8824707 -18.90869141 351.44775391 C-37.98947134 376.5235325 -59.12220306 398.1184373 -91.64453125 402.78515625 C-110.41851144 404.89037984 -129.34768383 396.85634165 -146.64453125 390.78515625 C-182.35510034 378.35993953 -212.40345802 379.33077002 -247.73071289 392.60534668 C-269.9150043 400.93781586 -293.48491198 408.53081164 -316.64453125 398.78515625 C-325.46247926 394.61457025 -333.31690733 389.21832843 -340.64453125 382.78515625 C-341.62292969 381.92792969 -342.60132813 381.07070313 -343.609375 380.1875 C-354.57501214 370.42792676 -363.77428556 359.43646506 -372.64453125 347.78515625 C-373.19302734 347.06650391 -373.74152344 346.34785156 -374.30664062 345.60742188 C-409.94675336 298.69134127 -434.03426073 244.02414056 -443.64453125 185.78515625 C-443.89009766 184.32384277 -443.89009766 184.32384277 -444.140625 182.83300781 C-448.89793412 153.17845899 -448.88332267 121.19513685 -442.64453125 91.78515625 C-442.4626123 90.91358887 -442.28069336 90.04202148 -442.09326172 89.14404297 C-435.24377794 57.5654131 -419.22448554 29.70162253 -396.64453125 6.78515625 C-395.89300781 6.02074219 -395.14148438 5.25632813 -394.3671875 4.46875 C-367.14403573 -21.54448391 -330.33697424 -33.14305816 -293.33203125 -32.5078125 C-273.54501719 -31.82998554 -255.07618403 -24.25097195 -236.5411377 -17.86694336 C-231.91531054 -16.27647102 -227.28059668 -14.71264843 -222.64453125 -13.15234375 C-221.84611816 -12.87801514 -221.04770508 -12.60368652 -220.22509766 -12.32104492 C-205.09436576 -7.20851883 -194.89886887 -8.77056111 -179.93283081 -13.96240234 C-177.54143706 -14.79141636 -175.14570892 -15.6065526 -172.74829102 -16.41796875 C-169.53661647 -17.50548471 -166.32624444 -18.59667855 -163.1171875 -19.69189453 C-106.32059069 -39.05423351 -48.41579317 -40.54912072 0 0 Z " fill="#000000" transform="translate(505.64453125,183.21484375)"/>
<path d="M0 0 C6.62992668 19.88978005 -3.02527855 47.37982731 -11.75 65.25 C-26.64693929 94.42063563 -53.39953425 121.20366143 -84.6875 131.875 C-96.60254116 135.54592036 -107.64781851 136.28215643 -120 136 C-123.81472428 107.28646727 -114.20194257 77.94946139 -97.2109375 54.84765625 C-96.48132813 53.90792969 -95.75171875 52.96820313 -95 52 C-94.27039063 51.04996094 -93.54078125 50.09992188 -92.7890625 49.12109375 C-71.87327059 22.73784045 -35.11702268 -1.81639773 0 0 Z " fill="#000000" transform="translate(420,14)"/>
</svg>
